<?xml version="1.0" encoding="UTF-8" standalone="no"?>
<!-- Created with Inkscape (http://www.inkscape.org/) -->

<svg
   version="1.1"
   id="svg2"
   width="247.41142"
   height="239.57466"
   viewBox="0 0 247.41142 239.57467"
   xmlns="http://www.w3.org/2000/svg"
   xmlnssvg="http://www.w3.org/2000/svg">
  <defs
     id="defs6" />
  <g
     id="g10"
     transform="matrix(1.3333333,0,0,-1.3333333,-174.89091,1499.6267)">
    <g
       id="g12"
       transform="scale(0.1)">
      <path
         d="m 2242.67,10692 c -207.25,0 -375.85,-168.6 -375.85,-375.8 0,-207.3 168.6,-375.93 375.85,-375.93 207.36,0 375.92,168.63 375.92,375.93 0,207.2 -168.56,375.8 -375.92,375.8 z m 0,-831.18 c -251.07,0 -455.29,204.28 -455.29,455.38 0,251 204.22,455.3 455.29,455.3 251.14,0 455.38,-204.3 455.38,-455.3 0,-251.1 -204.24,-455.38 -455.38,-455.38"
         style="fill:#fcf7f8;fill-opacity:1;fill-rule:nonzero;stroke:none"
         id="path16" />
      <path
         d="m 1888.2,10712.9 c 11.46,-13.1 10.22,-33.1 -2.91,-44.6 v 0 c -13.28,-11.6 -33.25,-10.2 -44.65,2.9 l -235.44,269 c -11.48,13.2 -10.13,33.2 2.93,44.6 v 0 c 13.15,11.5 33.22,10.3 44.7,-3 l 235.37,-268.9"
         style="fill:#fcf7f8;fill-opacity:1;fill-rule:nonzero;stroke:none"
         id="path18" />
      <path
         d="m 2275.57,10858.4 c 0.18,-17.5 -13.91,-31.7 -31.37,-31.8 v 0 c -17.48,-0.2 -31.7,13.8 -31.84,31.4 l -2.55,357.3 c -0.12,17.6 13.98,31.8 31.34,31.9 v 0 c 17.54,0.1 31.72,-13.8 31.91,-31.5 l 2.51,-357.3"
         style="fill:#fcf7f8;fill-opacity:1;fill-rule:nonzero;stroke:none"
         id="path20" />
      <path
         d="m 1702.08,10403 c 17.5,-1.4 30.3,-16.7 28.99,-34 v 0 c -1.47,-17.5 -16.58,-30.4 -34.15,-29.1 l -356.18,29.1 c -17.45,1.4 -30.5,16.7 -28.93,34 v 0 c 1.35,17.5 16.53,30.4 34.13,29.2 l 356.14,-29.2"
         style="fill:#fcf7f8;fill-opacity:1;fill-rule:nonzero;stroke:none"
         id="path22" />
      <path
         d="m 1759.49,10064.5 c 14.82,9.4 34.33,4.9 43.65,-9.8 v 0 c 9.31,-14.7 4.98,-34.3 -9.85,-43.7 l -302.12,-190.94 c -14.85,-9.4 -34.39,-4.99 -43.6,9.78 v 0 c -9.39,14.81 -4.97,34.3 9.85,43.65 l 302.07,191.01"
         style="fill:#fcf7f8;fill-opacity:1;fill-rule:nonzero;stroke:none"
         id="path24" />
      <path
         d="m 2029.37,9828.96 c 6.24,16.43 24.46,24.64 40.76,18.48 v 0 c 16.28,-6.16 24.59,-24.33 18.53,-40.83 l -125.95,-334.44 c -6.28,-16.36 -24.43,-24.61 -40.63,-18.42 v 0 c -16.59,6.16 -24.76,24.37 -18.62,40.76 l 125.91,334.45"
         style="fill:#fcf7f8;fill-opacity:1;fill-rule:nonzero;stroke:none"
         id="path26" />
      <path
         d="m 2711.96,9997.52 c -15.56,8.18 -21.48,27.18 -13.3,42.68 v 0 c 8.04,15.4 27.21,21.5 42.72,13.2 l 316.3,-166.23 c 15.54,-8.25 21.45,-27.39 13.24,-42.64 v 0 c -8.09,-15.61 -27.17,-21.45 -42.8,-13.37 l -316.16,166.36"
         style="fill:#fcf7f8;fill-opacity:1;fill-rule:nonzero;stroke:none"
         id="path28" />
      <path
         d="m 2784.35,10383.2 c -17.35,-2 -33.08,10.4 -35.09,27.6 v 0 c -2.07,17.4 10.32,33.2 27.76,35.2 l 354.94,41.5 c 17.44,2 33.17,-10.4 35.07,-27.7 v 0 c 2.13,-17.4 -10.3,-33 -27.74,-35.2 l -354.94,-41.4"
         style="fill:#fcf7f8;fill-opacity:1;fill-rule:nonzero;stroke:none"
         id="path30" />
      <path
         d="m 2551.42,9492.59 c 5.89,-16.43 -2.71,-34.55 -19.24,-40.45 v 0 c -16.53,-5.66 -34.53,2.84 -40.31,19.36 l -118.85,337.15 c -5.79,16.41 2.88,34.55 19.29,40.29 v 0 c 16.49,5.85 34.56,-2.74 40.37,-19.3 l 118.74,-337.05"
         style="fill:#fcf7f8;fill-opacity:1;fill-rule:nonzero;stroke:none"
         id="path32" />
      <path
         d="m 2609.91,10704.1 c -10.87,-13.8 -30.54,-16.2 -44.42,-5.5 v 0 c -13.78,10.8 -16.18,30.6 -5.46,44.3 l 220.08,281.8 c 10.74,13.8 30.63,16.3 44.37,5.5 v 0 c 13.74,-10.7 16.18,-30.6 5.38,-44.5 l -219.95,-281.6"
         style="fill:#fcf7f8;fill-opacity:1;fill-rule:nonzero;stroke:none"
         id="path34" />
    </g>
  </g>
</svg>
